<svg width="150" height="73" viewBox="0 0 150 73" fill="none" xmlns="http://www.w3.org/2000/svg">
<path d="M38.8057 70.8673V65.1653H39.3025L41.9092 69.6129H41.6485L44.2307 65.1653H44.7276V70.8673H44.1492V66.0695H44.2877L41.9092 70.1423H41.6241L39.2292 66.0695H39.384V70.8673H38.8057Z" fill="black"/>
<path d="M51.1144 70.9162C50.6854 70.9162 50.2863 70.8456 49.917 70.7044C49.5531 70.5578 49.2355 70.3541 48.9639 70.0935C48.6979 69.8274 48.4888 69.5205 48.3367 69.173C48.1901 68.82 48.1168 68.4345 48.1168 68.0163C48.1168 67.5982 48.1901 67.2153 48.3367 66.8678C48.4888 66.5148 48.6979 66.208 48.9639 65.9473C49.2355 65.6812 49.5531 65.4776 49.917 65.3364C50.2808 65.1898 50.68 65.1165 51.1144 65.1165C51.5434 65.1165 51.9398 65.1898 52.3037 65.3364C52.6675 65.4776 52.9825 65.6785 53.2486 65.9392C53.5201 66.1998 53.7292 66.5066 53.8758 66.8596C54.0278 67.2126 54.1039 67.5982 54.1039 68.0163C54.1039 68.4345 54.0278 68.82 53.8758 69.173C53.7292 69.526 53.5201 69.8328 53.2486 70.0935C52.9825 70.3541 52.6675 70.5578 52.3037 70.7044C51.9398 70.8456 51.5434 70.9162 51.1144 70.9162ZM51.1144 70.3786C51.4565 70.3786 51.7715 70.3215 52.0593 70.2075C52.3525 70.088 52.6051 69.9224 52.8168 69.7106C53.0341 69.4934 53.2024 69.2436 53.3219 68.9612C53.4413 68.6734 53.5011 68.3584 53.5011 68.0163C53.5011 67.6742 53.4413 67.3619 53.3219 67.0796C53.2024 66.7917 53.0341 66.5419 52.8168 66.3302C52.6051 66.1129 52.3525 65.9473 52.0593 65.8333C51.7715 65.7138 51.4565 65.6541 51.1144 65.6541C50.7723 65.6541 50.4546 65.7138 50.1614 65.8333C49.8681 65.9473 49.6129 66.1129 49.3957 66.3302C49.1839 66.5419 49.0155 66.7917 48.8906 67.0796C48.7712 67.3619 48.7114 67.6742 48.7114 68.0163C48.7114 68.353 48.7712 68.6653 48.8906 68.9531C49.0155 69.2409 49.1839 69.4934 49.3957 69.7106C49.6129 69.9224 49.8681 70.088 50.1614 70.2075C50.4546 70.3215 50.7723 70.3786 51.1144 70.3786Z" fill="black"/>
<path d="M58.5196 70.8673V65.6867H56.5158V65.1653H61.1263V65.6867H59.1224V70.8673H58.5196Z" fill="black"/>
<path d="M66.5387 70.9162C66.1097 70.9162 65.7105 70.8456 65.3413 70.7044C64.9774 70.5578 64.6597 70.3541 64.3882 70.0935C64.1221 69.8274 63.913 69.5205 63.761 69.173C63.6144 68.82 63.5411 68.4345 63.5411 68.0163C63.5411 67.5982 63.6144 67.2153 63.761 66.8678C63.913 66.5148 64.1221 66.208 64.3882 65.9473C64.6597 65.6812 64.9774 65.4776 65.3413 65.3364C65.7051 65.1898 66.1042 65.1165 66.5387 65.1165C66.9677 65.1165 67.3641 65.1898 67.7279 65.3364C68.0918 65.4776 68.4067 65.6785 68.6728 65.9392C68.9444 66.1998 69.1534 66.5066 69.3 66.8596C69.4521 67.2126 69.5281 67.5982 69.5281 68.0163C69.5281 68.4345 69.4521 68.82 69.3 69.173C69.1534 69.526 68.9444 69.8328 68.6728 70.0935C68.4067 70.3541 68.0918 70.5578 67.7279 70.7044C67.3641 70.8456 66.9677 70.9162 66.5387 70.9162ZM66.5387 70.3786C66.8808 70.3786 67.1957 70.3215 67.4836 70.2075C67.7768 70.088 68.0293 69.9224 68.2411 69.7106C68.4583 69.4934 68.6267 69.2436 68.7461 68.9612C68.8656 68.6734 68.9253 68.3584 68.9253 68.0163C68.9253 67.6742 68.8656 67.3619 68.7461 67.0796C68.6267 66.7917 68.4583 66.5419 68.2411 66.3302C68.0293 66.1129 67.7768 65.9473 67.4836 65.8333C67.1957 65.7138 66.8808 65.6541 66.5387 65.6541C66.1965 65.6541 65.8789 65.7138 65.5856 65.8333C65.2924 65.9473 65.0371 66.1129 64.8199 66.3302C64.6081 66.5419 64.4398 66.7917 64.3149 67.0796C64.1954 67.3619 64.1357 67.6742 64.1357 68.0163C64.1357 68.353 64.1954 68.6653 64.3149 68.9531C64.4398 69.2409 64.6081 69.4934 64.8199 69.7106C65.0371 69.9224 65.2924 70.088 65.5856 70.2075C65.8789 70.3215 66.1965 70.3786 66.5387 70.3786Z" fill="black"/>
<path d="M77.0839 70.8673V65.1653H79.2181C79.7014 65.1653 80.1168 65.2441 80.4644 65.4016C80.8119 65.5536 81.078 65.7763 81.2627 66.0695C81.4527 66.3573 81.5478 66.7076 81.5478 67.1203C81.5478 67.5221 81.4527 67.8697 81.2627 68.1629C81.078 68.4507 80.8119 68.6734 80.4644 68.8309C80.1168 68.9884 79.7014 69.0671 79.2181 69.0671H77.4179L77.6867 68.782V70.8673H77.0839ZM77.6867 68.8309L77.4179 68.5376H79.2018C79.772 68.5376 80.2037 68.4154 80.497 68.1711C80.7956 67.9213 80.945 67.571 80.945 67.1203C80.945 66.6641 80.7956 66.3112 80.497 66.0614C80.2037 65.8116 79.772 65.6867 79.2018 65.6867H77.4179L77.6867 65.4016V68.8309Z" fill="black"/>
<path d="M85.4252 67.7149H88.4391V68.2281H85.4252V67.7149ZM85.4903 70.346H88.9196V70.8673H84.8875V65.1653H88.7975V65.6867H85.4903V70.346Z" fill="black"/>
<path d="M94.8333 70.9162C94.4043 70.9162 94.0079 70.8456 93.6441 70.7044C93.2802 70.5578 92.9653 70.3541 92.6992 70.0935C92.4331 69.8328 92.224 69.526 92.072 69.173C91.9253 68.82 91.852 68.4345 91.852 68.0163C91.852 67.5982 91.9253 67.2126 92.072 66.8596C92.224 66.5066 92.4331 66.1998 92.6992 65.9392C92.9707 65.6785 93.2884 65.4776 93.6522 65.3364C94.0161 65.1898 94.4125 65.1165 94.8415 65.1165C95.2542 65.1165 95.6425 65.1871 96.0063 65.3282C96.3702 65.464 96.677 65.6704 96.9268 65.9473L96.5439 66.3302C96.3104 66.0912 96.0525 65.9202 95.7701 65.817C95.4877 65.7084 95.1836 65.6541 94.8578 65.6541C94.5157 65.6541 94.198 65.7138 93.9047 65.8333C93.6115 65.9473 93.3563 66.1129 93.139 66.3302C92.9218 66.5419 92.7508 66.7917 92.6259 67.0796C92.5064 67.3619 92.4467 67.6742 92.4467 68.0163C92.4467 68.3584 92.5064 68.6734 92.6259 68.9612C92.7508 69.2436 92.9218 69.4934 93.139 69.7106C93.3563 69.9224 93.6115 70.088 93.9047 70.2075C94.198 70.3215 94.5157 70.3786 94.8578 70.3786C95.1836 70.3786 95.4877 70.3243 95.7701 70.2156C96.0525 70.107 96.3104 69.9333 96.5439 69.6943L96.9268 70.0772C96.677 70.3541 96.3702 70.5632 96.0063 70.7044C95.6425 70.8456 95.2515 70.9162 94.8333 70.9162ZM94.5401 72.6593C94.4043 72.6593 94.2794 72.6431 94.1654 72.6105C94.0568 72.5779 93.9536 72.5317 93.8559 72.472L93.9943 72.1625C94.0758 72.2113 94.16 72.2493 94.2468 72.2765C94.3392 72.3036 94.4342 72.3172 94.5319 72.3172C94.6949 72.3172 94.8198 72.2819 94.9066 72.2113C94.9935 72.1462 95.037 72.0538 95.037 71.9344C95.037 71.8258 94.9935 71.7362 94.9066 71.6656C94.8252 71.595 94.7003 71.5597 94.5319 71.5597H94.3446L94.5401 70.8184H94.8904L94.7682 71.2909C94.9908 71.3072 95.1619 71.375 95.2813 71.4945C95.4008 71.6194 95.4605 71.7715 95.4605 71.9507C95.4605 72.1679 95.3737 72.3389 95.1999 72.4638C95.0315 72.5942 94.8116 72.6593 94.5401 72.6593Z" fill="black"/>
<path d="M99.1927 70.8673L101.799 65.1653H102.394L105.001 70.8673H104.365L101.97 65.5156H102.215L99.8199 70.8673H99.1927ZM100.219 69.3441L100.398 68.8553H103.714L103.893 69.3441H100.219Z" fill="black"/>
<path d="M109.552 70.9162C109.129 70.9162 108.721 70.8483 108.33 70.7125C107.945 70.5713 107.646 70.3921 107.434 70.1749L107.671 69.7106C107.872 69.9061 108.14 70.0717 108.477 70.2075C108.819 70.3378 109.178 70.403 109.552 70.403C109.911 70.403 110.201 70.3595 110.424 70.2727C110.652 70.1803 110.818 70.0582 110.921 69.9061C111.029 69.7541 111.084 69.5857 111.084 69.4011C111.084 69.1784 111.019 68.9992 110.888 68.8635C110.763 68.7277 110.598 68.6218 110.391 68.5458C110.185 68.4643 109.957 68.3937 109.707 68.334C109.457 68.2743 109.207 68.2118 108.958 68.1466C108.708 68.076 108.477 67.9837 108.265 67.8697C108.059 67.7557 107.891 67.6063 107.76 67.4217C107.635 67.2316 107.573 66.9845 107.573 66.6804C107.573 66.398 107.646 66.1401 107.793 65.9066C107.945 65.6676 108.176 65.4776 108.485 65.3364C108.795 65.1898 109.191 65.1165 109.674 65.1165C109.995 65.1165 110.313 65.1626 110.628 65.2549C110.942 65.3418 111.214 65.464 111.442 65.6215L111.238 66.1021C110.994 65.9392 110.733 65.8197 110.456 65.7437C110.185 65.6676 109.922 65.6296 109.666 65.6296C109.324 65.6296 109.042 65.6758 108.819 65.7681C108.597 65.8604 108.431 65.9853 108.322 66.1428C108.219 66.2949 108.168 66.4686 108.168 66.6641C108.168 66.8868 108.23 67.066 108.355 67.2017C108.485 67.3375 108.654 67.4434 108.86 67.5194C109.072 67.5955 109.302 67.6633 109.552 67.7231C109.802 67.7828 110.049 67.848 110.294 67.9186C110.543 67.9892 110.771 68.0815 110.978 68.1955C111.19 68.3041 111.358 68.4507 111.483 68.6354C111.613 68.82 111.678 69.0617 111.678 69.3603C111.678 69.6373 111.602 69.8952 111.45 70.1342C111.298 70.3677 111.065 70.5578 110.75 70.7044C110.44 70.8456 110.041 70.9162 109.552 70.9162Z" fill="black"/>
<path d="M42.561 60.2779V46.023H49.0776C50.3809 46.023 51.5009 46.2334 52.4377 46.6543C53.388 47.0752 54.1211 47.6861 54.637 48.4871C55.1529 49.2745 55.4108 50.2112 55.4108 51.2973C55.4108 52.3698 55.1529 53.2998 54.637 54.0872C54.1211 54.8746 53.388 55.4856 52.4377 55.92C51.5009 56.3409 50.3809 56.5513 49.0776 56.5513H44.8011L46.5931 54.8V60.2779H42.561ZM46.5931 55.2276L44.8011 53.3745H48.8332C49.6749 53.3745 50.2994 53.1912 50.7067 52.8246C51.1276 52.4581 51.338 51.949 51.338 51.2973C51.338 50.6321 51.1276 50.1162 50.7067 49.7497C50.2994 49.3831 49.6749 49.1998 48.8332 49.1998H44.8011L46.5931 47.3467V55.2276Z" fill="black"/>
<path d="M54.9502 60.2779L61.2428 46.023H65.2138L71.5267 60.2779H67.3317L62.4035 47.9983H63.9919L59.0638 60.2779H54.9502ZM58.3918 57.5084L59.4304 54.5352H66.3949L67.4335 57.5084H58.3918Z" fill="black"/>
<path d="M72.6698 60.2779V46.023H76.7019V60.2779H72.6698Z" fill="black"/>
<path d="M83.909 60.2779L77.8202 46.023H82.1781L87.3099 58.3637H84.744L89.9979 46.023H93.9893L87.88 60.2779H83.909Z" fill="black"/>
<path d="M92.616 60.2779L98.9085 46.023H102.88L109.192 60.2779H104.997L100.069 47.9983H101.658L96.7295 60.2779H92.616ZM96.0575 57.5084L97.0961 54.5352H104.061L105.099 57.5084H96.0575Z" fill="black"/>
<path fill-rule="evenodd" clip-rule="evenodd" d="M25.4617 2.13824C25.9448 6.89001 26.8783 16.9336 26.8795 17.3934C26.8823 18.4569 32.8054 15.6613 36.607 12.8021C39.6221 10.5344 40.8599 8.39492 40.2954 6.42693C39.8242 4.78395 39.4417 4.38848 37.0766 3.10146C35.0459 1.9961 28.0545 0 26.214 0C25.2882 0 25.2544 0.0965261 25.4617 2.13824ZM63.9435 3.89159C56.4393 5.31219 49.7497 6.576 49.0776 6.69941C48.1755 6.86558 47.541 7.43007 46.6515 8.85882C41.9661 16.385 36.895 24.3107 36.5068 24.7139C36.1529 25.0813 35.3758 24.9644 33.1936 24.215C27.2896 22.1876 19.1252 23.1044 12.2201 26.5695C6.16057 29.6107 0 36.4083 0 40.0531V41.7286L1.31471 40.1084C6.2689 34.002 12.8978 30.9535 21.2203 30.9535C24.6186 30.9535 29.5627 31.8667 30.7075 32.7061C31.3111 33.1488 31.2794 33.3304 30.3613 34.6806C29.3631 36.1476 29.3268 36.1619 27.6061 35.7599C24.894 35.1261 18.441 35.2434 15.592 35.9786C9.40376 37.5751 3.88223 41.6891 1.71181 46.3211C0.770989 48.3286 0.610925 49.2035 0.610925 52.3359C0.610925 55.5477 0.755511 56.2963 1.78064 58.3837C4.09116 63.089 8.95087 66.715 15.2707 68.4489C19.4168 69.5864 26.1097 69.4133 29.9353 68.0693C31.2794 67.5972 31.9208 67.3056 31.3608 67.4213C30.8008 67.5373 28.7847 67.7365 26.8807 67.8644C18.2801 68.4423 9.965 64.3646 6.73158 57.9829C5.6926 55.9326 5.51991 55.1327 5.51299 52.3359C5.50321 48.3633 6.38091 46.1896 9.21804 43.1561C13.2115 38.887 19.284 36.5125 25.6275 36.7402L28.9473 36.8591L23.9165 44.8012L18.8861 52.7432L20.1068 52.8764C20.7784 52.9497 21.92 52.8984 22.6445 52.7623C23.8391 52.5383 24.4647 51.7242 29.392 43.9809C32.379 39.2865 34.9938 35.443 35.2031 35.4398C35.4121 35.4365 36.4608 36.3439 37.5332 37.4566L39.4833 39.4796L43.1602 37.1854C45.1828 35.924 46.8376 34.6765 46.8376 34.4134C46.8376 33.8428 42.6226 29.3786 41.0379 28.2716L39.9223 27.4916L45.6609 18.5314C48.8174 13.6033 51.4354 9.53206 51.4794 9.48441C51.523 9.43676 59.4312 8.00556 69.0533 6.30434C78.6753 4.60271 86.9004 3.07132 87.3317 2.90148C88.1703 2.57077 80.8738 1.18357 78.7258 1.26502C78.0998 1.28905 71.4477 2.47098 63.9435 3.89159ZM55.3905 12.502C53.093 13.6863 52.1901 16.0437 51.4981 22.6621C51.1739 25.7664 50.8229 28.5355 50.7186 28.8153C50.572 29.2079 51.9009 29.3264 56.5232 29.3338C59.8206 29.3391 66.5041 29.4543 71.3764 29.5899C77.4799 29.7598 80.2348 29.7028 80.2348 29.4063C80.2348 29.1696 81.3353 28.3074 82.6805 27.4904C86.5652 25.1306 86.8853 23.3459 83.7953 21.2801C81.4664 19.7235 81.0596 19.5582 69.8491 15.6148C58.7979 11.7273 57.4542 11.4381 55.3905 12.502ZM137.458 16.4591C133.862 17.1519 131.785 17.749 120.963 21.1995C107.877 25.3725 106.002 25.8034 100.803 25.8352C95.5645 25.867 93.8173 25.2483 92.0921 22.7504C91.5068 21.9029 90.9362 21.2146 90.8242 21.2207C90.7122 21.2264 89.1999 22.9516 87.4641 25.054C85.4656 27.4745 84.3076 29.2352 84.3076 29.8543C84.3076 30.734 84.6037 30.8998 87.2604 31.5111C90.3737 32.2271 95.521 33.1427 99.9889 33.7756C102.864 34.1829 104.818 33.9426 119.538 31.3718C127.155 30.0416 145.991 26.6335 147.946 26.2315C149.033 26.0083 149.066 25.9215 149.066 23.2783C149.066 17.1283 145.342 14.9404 137.458 16.4591ZM120.999 36.269C118.056 37.04 116.287 37.8497 118.723 37.3112C119.395 37.163 121.503 36.9369 123.407 36.8095C132.008 36.2336 140.762 40.4766 143.787 46.6877C145.173 49.5342 145.176 53.9883 143.794 56.816C140.664 63.2185 132.464 67.1928 123.459 66.6719C121.302 66.5472 119.079 66.3277 118.519 66.1844C117.705 65.9758 117.635 66.01 118.17 66.355C120.667 67.9634 129.742 68.5486 134.627 67.4156C143.634 65.3266 150 58.7983 150 51.6504C150 40.6717 134.857 32.6401 120.999 36.269Z" fill="black"/>
</svg>
