<svg width="50" height="51" viewBox="0 0 50 51" fill="none" xmlns="http://www.w3.org/2000/svg">
<path d="M48.3017 24.9055C48.3017 37.8269 37.8269 48.3017 24.9055 48.3017C11.9841 48.3017 1.50928 37.8269 1.50928 24.9055C1.50928 11.9841 11.9841 1.50928 24.9055 1.50928C37.8269 1.50928 48.3017 11.9841 48.3017 24.9055Z" fill="#25D366"/>
<path d="M4.49414 43.2769L7.06284 39.9907L10.6209 42.772L8.05219 46.0581L4.49414 43.2769Z" fill="#25D366"/>
<path d="M42.6887 7.3112C45.0472 9.66969 46.8553 12.382 48.1132 15.448C49.3711 18.4354 50 21.5801 50 24.882C50 28.3411 49.3318 31.6036 47.9953 34.6697C46.7374 37.6571 44.9686 40.2908 42.6887 42.5706C40.4088 44.8505 37.7752 46.6587 34.7877 47.9952C31.8003 49.253 28.577 49.882 25.1179 49.882C20.8726 49.882 16.9025 48.8599 13.2075 46.8159L0 50.2357L3.53774 37.382C1.25786 33.5298 0.117925 29.3631 0.117925 24.882C0.117925 21.4228 0.746855 18.1996 2.00472 15.2121C3.3412 12.2247 5.14937 9.59107 7.42925 7.3112C9.78774 5.03132 12.4607 3.26246 15.4481 2.00459C18.4355 0.668117 21.6588 -0.00012207 25.1179 -0.00012207C28.4198 -0.00012207 31.5645 0.628809 34.5519 1.88667C37.6179 3.14453 40.3302 4.95271 42.6887 7.3112ZM25.1179 45.6367C27.9481 45.6367 30.6211 45.1257 33.1368 44.1036C35.6525 43.003 37.8538 41.5093 39.7406 39.6225C41.6274 37.6571 43.0818 35.4559 44.1038 33.0187C45.2044 30.503 45.7547 27.7908 45.7547 24.882C45.7547 22.1304 45.2437 19.4967 44.2217 16.981C43.1997 14.4653 41.706 12.2247 39.7406 10.2593C37.7752 8.2939 35.5346 6.80019 33.0189 5.77818C30.5031 4.67755 27.8695 4.12724 25.1179 4.12724C22.2091 4.12724 19.4969 4.67755 16.9811 5.77818C14.544 6.87881 12.3428 8.37252 10.3774 10.2593C8.49057 12.1461 6.99686 14.3474 5.89623 16.8631C4.87421 19.3788 4.36321 22.0518 4.36321 24.882C4.36321 28.8914 5.42453 32.5864 7.54717 35.9669L8.01887 36.6744L5.89623 44.3395L13.7972 42.2169L14.5047 42.6886C17.8066 44.654 21.3443 45.6367 25.1179 45.6367ZM36.4387 30.0706C36.7531 30.2279 36.989 30.3851 37.1462 30.5423C37.3821 30.6209 37.5393 30.6996 37.6179 30.7782C37.6965 30.9354 37.7358 31.2892 37.7358 31.8395C37.7358 32.3898 37.5786 33.0581 37.2642 33.8442C37.1069 34.3159 36.7531 34.7876 36.2028 35.2593C35.7311 35.6524 35.1808 36.0062 34.5519 36.3206C34.0016 36.5565 33.5299 36.7137 33.1368 36.7923C32.5865 36.8709 31.9575 36.9103 31.25 36.9103C30.6211 36.9103 29.9135 36.7923 29.1274 36.5565C28.7343 36.3992 28.2233 36.242 27.5943 36.0848C27.044 35.8489 26.3758 35.5738 25.5896 35.2593C24.0173 34.5518 22.6022 33.687 21.3443 32.665C20.0865 31.643 18.9858 30.6603 18.0425 29.7169C17.1777 28.6948 16.4701 27.8301 15.9198 27.1225C15.3695 26.3364 15.055 25.904 14.9764 25.8253C14.8978 25.6681 14.6226 25.275 14.1509 24.6461C13.7579 24.0172 13.3648 23.231 12.9717 22.2876C12.6572 21.3442 12.5 20.3615 12.5 19.3395C12.5 17.8458 12.7752 16.7059 13.3255 15.9197C13.8758 15.0549 14.3082 14.4653 14.6226 14.1508C14.9371 13.8364 15.2123 13.6398 15.4481 13.5612C15.7626 13.404 16.0377 13.3253 16.2736 13.3253C16.5094 13.3253 16.706 13.3253 16.8632 13.3253C17.0991 13.3253 17.2956 13.3253 17.4528 13.3253C17.6887 13.404 17.9245 13.4826 18.1604 13.5612C18.3962 13.5612 18.6321 13.8757 18.8679 14.5046C19.0252 14.8977 19.261 15.448 19.5755 16.1555C19.8899 16.8631 20.1651 17.5313 20.4009 18.1603C20.6368 18.7106 20.7547 19.025 20.7547 19.1037C20.8333 19.2609 20.8726 19.4181 20.8726 19.5753C20.9513 19.7326 20.9513 19.9291 20.8726 20.165C20.794 20.4008 20.6761 20.5974 20.5189 20.7546C20.4403 20.8332 20.3223 20.9904 20.1651 21.2263C20.0865 21.3835 19.9292 21.5801 19.6934 21.8159C19.5362 21.9731 19.4182 22.1304 19.3396 22.2876C19.1038 22.4448 18.9465 22.6414 18.8679 22.8772C18.7893 23.0345 18.8286 23.2703 18.9858 23.5848C19.2217 23.8992 19.6148 24.4889 20.1651 25.3536C20.794 26.2184 21.5802 27.0439 22.5236 27.8301C23.7028 28.9307 24.7248 29.7169 25.5896 30.1886C26.533 30.5816 27.162 30.8568 27.4764 31.014C28.0267 31.3285 28.4984 31.2499 28.8915 30.7782C29.0487 30.6209 29.3632 30.2672 29.8349 29.7169C30.3066 29.1665 30.6211 28.7342 30.7783 28.4197C31.0142 28.1052 31.25 27.948 31.4858 27.948C31.7217 27.948 31.9575 27.9873 32.1934 28.0659C32.4292 28.1445 32.8223 28.3411 33.3726 28.6555C34.0016 28.97 34.6305 29.2845 35.2594 29.5989C35.8884 29.8348 36.2814 29.992 36.4387 30.0706Z" fill="white"/>
</svg>
