<svg width="77" height="77" viewBox="0 0 77 77" fill="none" xmlns="http://www.w3.org/2000/svg">
<circle cx="38.5" cy="38.5" r="38.5" fill="#FFDE59"/>
<path d="M49.6163 13.7988C52.0406 14.6314 54.4372 15.1499 55.1189 15.7039L56.7248 17.0046L58.3306 18.3053C60.0911 19.5351 64.7736 24.4944 64.7736 25.1283C64.7736 25.4206 62.9353 26.8065 60.6884 28.2077L56.6036 30.7564L54.4372 28.5091C53.2459 27.273 52.0809 26.2649 51.8487 26.2685C51.6162 26.2721 48.7114 30.542 45.3931 35.757C39.9193 44.359 39.2243 45.2635 37.8973 45.5124C37.0924 45.6635 35.8241 45.7205 35.078 45.639L33.722 45.4911L39.3103 36.6682L44.899 27.8453L41.2111 27.7132C34.1641 27.4603 27.418 30.0981 22.9816 34.8407C19.8298 38.2106 18.8548 40.6254 18.8656 45.0386C18.8733 48.1456 19.0652 49.0343 20.2194 51.3119C23.8114 58.4014 33.0488 62.9314 42.6033 62.2894C44.7185 62.1473 46.9582 61.9261 47.5803 61.7971C48.2024 61.6686 47.4898 61.9926 45.9967 62.517C41.7468 64.0101 34.3116 64.2024 29.7056 62.9387C22.6848 61.0126 17.2861 56.9844 14.7193 51.7571C13.5805 49.4383 13.4199 48.6067 13.4199 45.0386C13.4199 41.5588 13.5977 40.5869 14.6429 38.3568C17.054 33.211 23.188 28.6407 30.0626 26.8671C33.2275 26.0504 40.3962 25.9201 43.4091 26.6241C45.3207 27.0707 45.361 27.0549 46.47 25.4251C47.4898 23.9252 47.5251 23.7234 46.8545 23.2316C45.5827 22.2991 40.0903 21.2847 36.315 21.2847C27.0696 21.2847 19.7054 24.6713 14.2017 31.455L12.7412 33.2549V31.3935C12.7412 27.3445 19.5851 19.793 26.3167 16.4145C33.9876 12.565 42.6549 11.8262 49.6163 13.7988Z" fill="black"/>
</svg>
